<svg xmlns="http://www.w3.org/2000/svg" viewBox="0 0 500 500"><g id="freepik--background-complete--inject-5"><rect y="382.4" width="500" height="0.25" style="fill:#ebebeb"></rect><rect x="52.46" y="391.92" width="33.12" height="0.25" style="fill:#ebebeb"></rect><rect x="171.14" y="392.05" width="53.86" height="0.25" style="fill:#ebebeb"></rect><rect x="105.77" y="397.08" width="19.19" height="0.25" style="fill:#ebebeb"></rect><rect x="426.77" y="396.96" width="19.23" height="0.25" style="fill:#ebebeb"></rect><rect x="387.57" y="396.96" width="30.29" height="0.25" style="fill:#ebebeb"></rect><rect x="328.33" y="395.31" width="42.56" height="0.25" style="fill:#ebebeb"></rect><path d="M237,337.8H43.91a5.71,5.71,0,0,1-5.7-5.71V60.66A5.71,5.71,0,0,1,43.91,55H237a5.71,5.71,0,0,1,5.71,5.71V332.09A5.71,5.71,0,0,1,237,337.8ZM43.91,55.2a5.46,5.46,0,0,0-5.45,5.46V332.09a5.46,5.46,0,0,0,5.45,5.46H237a5.47,5.47,0,0,0,5.46-5.46V60.66A5.47,5.47,0,0,0,237,55.2Z" style="fill:#ebebeb"></path><path d="M453.31,337.8H260.21a5.72,5.72,0,0,1-5.71-5.71V60.66A5.72,5.72,0,0,1,260.21,55h193.1A5.71,5.71,0,0,1,459,60.66V332.09A5.71,5.71,0,0,1,453.31,337.8ZM260.21,55.2a5.47,5.47,0,0,0-5.46,5.46V332.09a5.47,5.47,0,0,0,5.46,5.46h193.1a5.47,5.47,0,0,0,5.46-5.46V60.66a5.47,5.47,0,0,0-5.46-5.46Z" style="fill:#ebebeb"></path><rect x="131.02" y="184.22" width="17.21" height="53.57" style="fill:#e6e6e6"></rect><polygon points="194.88 237.79 137.77 237.79 129.15 175.09 186.25 175.09 194.88 237.79" style="fill:#f0f0f0"></polygon><polygon points="201.06 237.79 142.08 237.79 133.45 175.09 192.44 175.09 201.06 237.79" style="fill:#f5f5f5"></polygon><polygon points="146.34 232.85 139.07 180.03 188.18 180.03 195.44 232.85 146.34 232.85" style="fill:#fff"></polygon><rect x="106.51" y="198.65" width="12.57" height="39.14" style="fill:#e6e6e6"></rect><polygon points="153.16 237.79 111.44 237.79 105.14 191.98 146.86 191.98 153.16 237.79" style="fill:#f0f0f0"></polygon><polygon points="157.68 237.79 114.58 237.79 108.28 191.98 151.38 191.98 157.68 237.79" style="fill:#f5f5f5"></polygon><polygon points="117.7 234.18 112.39 195.59 148.26 195.59 153.57 234.18 117.7 234.18" style="fill:#fff"></polygon><rect x="172.54" y="237.79" width="54.91" height="144.6" style="fill:#e6e6e6"></rect><polygon points="221.92 382.4 227.44 382.4 227.44 373 216.13 373 221.92 382.4" style="fill:#f0f0f0"></polygon><rect x="76.32" y="237.79" width="54.91" height="144.6" style="fill:#e6e6e6"></rect><rect x="126.4" y="237.79" width="101.04" height="141.27" style="fill:#f0f0f0"></rect><polygon points="131.93 382.4 126.4 382.4 126.4 373 137.72 373 131.93 382.4" style="fill:#f0f0f0"></polygon><rect x="130.69" y="242.29" width="92.47" height="63.7" rx="2.91" style="fill:#fff"></rect><path d="M186.94,251.3h-20a31.71,31.71,0,0,1-23-9.89h66A31.67,31.67,0,0,1,186.94,251.3Z" style="fill:#f0f0f0"></path><rect x="130.69" y="310.68" width="92.47" height="63.7" rx="2.91" style="fill:#fff"></rect><path d="M186.94,319.69h-20a31.71,31.71,0,0,1-23-9.89h66A31.67,31.67,0,0,1,186.94,319.69Z" style="fill:#f0f0f0"></path><path d="M124.82,158.28A42.14,42.14,0,1,1,167,116.14,42.18,42.18,0,0,1,124.82,158.28Zm0-83.27A41.14,41.14,0,1,0,166,116.14,41.18,41.18,0,0,0,124.82,75Z" style="fill:#ebebeb"></path><path d="M122.69,158.28a42.14,42.14,0,0,1,0-84.27v1a41.14,41.14,0,0,0,0,82.27Z" style="fill:#ebebeb"></path><path d="M124.82,117.62a1.47,1.47,0,0,1-1.44-1.81l7.41-32a1.48,1.48,0,1,1,2.88.66L127,113.38l14.79-7.61a1.49,1.49,0,0,1,2,.64,1.48,1.48,0,0,1-.64,2l-17.62,9.06A1.44,1.44,0,0,1,124.82,117.62Z" style="fill:#e0e0e0"></path><rect x="292.76" y="87.83" width="146.49" height="143.4" style="fill:#f0f0f0"></rect><rect x="295.2" y="87.83" width="149.27" height="143.4" style="fill:#f5f5f5"></rect><rect x="305.44" y="92.2" width="128.79" height="134.66" transform="translate(529.36 -210.31) rotate(90)" style="fill:#fff"></rect><path d="M369.84,200.07a40.55,40.55,0,1,1,40.54-40.55A40.6,40.6,0,0,1,369.84,200.07Zm0-80.33a39.79,39.79,0,1,0,39.78,39.78A39.83,39.83,0,0,0,369.84,119.74Z" style="fill:#f5f5f5"></path><rect x="372.31" y="159.06" width="128.79" height="0.93" transform="translate(596.22 -277.18) rotate(90)" style="fill:#f0f0f0"></rect></g><g id="freepik--Shadow--inject-5"><ellipse id="freepik--path--inject-5" cx="250" cy="416.24" rx="193.89" ry="11.32" style="fill:#f5f5f5"></ellipse></g><g id="freepik--features-overview--inject-5"><path d="M382.93,289.85c-1.63-.37-3.43-.73-5.36-1.07l.18-1c1.94.35,3.76.71,5.4,1.09Z" style="fill:#407BFF"></path><path d="M373.8,288.16c-4.12-.63-8.71-1.18-13.64-1.64l.1-1c4.95.46,9.55,1,13.69,1.64Z" style="fill:#407BFF"></path><ellipse cx="322.73" cy="298.36" rx="71.69" ry="10.94" style="fill:#407BFF"></ellipse><path d="M322.73,309.3c-39.59,0-71.69-4.9-71.69-10.94v64.58c0,6,32.1,10.94,71.69,10.94s71.69-4.9,71.69-10.94V298.36C394.42,304.4,362.33,309.3,322.73,309.3Z" style="fill:#263238"></path><path d="M322.73,309.3c-39.59,0-71.69-4.9-71.69-10.94v64.58c0,6,32.1,10.94,71.69,10.94s71.69-4.9,71.69-10.94V298.36C394.42,304.4,362.33,309.3,322.73,309.3Z" style="fill:#fff;opacity:0.75"></path><path d="M322.73,343.77c-35.48,0-72.19-4.28-72.19-11.44h1c0,5,28.61,10.44,71.19,10.44s71.19-5.4,71.19-10.44h1C394.92,339.49,358.22,343.77,322.73,343.77Z" style="fill:#fff"></path><ellipse cx="322.73" cy="220.87" rx="57.35" ry="8.75" style="fill:#407BFF"></ellipse><ellipse cx="322.73" cy="220.87" rx="57.35" ry="8.75" style="fill:#fff;opacity:0.2"></ellipse><path d="M322.73,229.62c-31.67,0-57.35-3.92-57.35-8.75v51.66c0,4.83,25.68,8.75,57.35,8.75s57.36-3.92,57.36-8.75V220.87C380.09,225.7,354.41,229.62,322.73,229.62Z" style="fill:#263238"></path><path d="M322.73,229.62c-31.67,0-57.35-3.92-57.35-8.75v51.66c0,4.83,25.68,8.75,57.35,8.75s57.36-3.92,57.36-8.75V220.87C380.09,225.7,354.41,229.62,322.73,229.62Z" style="fill:#fff;opacity:0.8"></path><path d="M322.73,256c-28,0-57.85-3.24-57.85-9.25h1c0,3.9,23.35,8.25,56.85,8.25s56.86-4.35,56.86-8.25h1C380.59,252.71,350.78,256,322.73,256Z" style="fill:#fff"></path><ellipse cx="322.73" cy="157.64" rx="45.88" ry="7" style="fill:#407BFF"></ellipse><ellipse cx="322.73" cy="157.64" rx="45.88" ry="7" style="fill:#fff;opacity:0.4"></ellipse><path d="M322.73,164.64c-25.34,0-45.88-3.13-45.88-7V199c0,3.87,20.54,7,45.88,7s45.89-3.13,45.89-7V157.64C368.62,161.51,348.07,164.64,322.73,164.64Z" style="fill:#263238"></path><path d="M322.73,164.64c-25.34,0-45.88-3.13-45.88-7V199c0,3.87,20.54,7,45.88,7s45.89-3.13,45.89-7V157.64C368.62,161.51,348.07,164.64,322.73,164.64Z" style="fill:#fff;opacity:0.85"></path><path d="M322.73,185.81c-22.48,0-46.38-2.63-46.38-7.5h1c0,3.07,18.64,6.5,45.38,6.5s45.39-3.43,45.39-6.5h1C369.12,183.18,345.22,185.81,322.73,185.81Z" style="fill:#fff"></path><ellipse cx="322.73" cy="105.83" rx="36.71" ry="5.6" style="fill:#407BFF"></ellipse><ellipse cx="322.73" cy="105.83" rx="36.71" ry="5.6" style="fill:#fff;opacity:0.6000000000000001"></ellipse><path d="M322.73,111.43c-20.27,0-36.7-2.5-36.7-5.6V138.9c0,3.09,16.43,5.6,36.7,5.6s36.71-2.51,36.71-5.6V105.83C359.44,108.93,343,111.43,322.73,111.43Z" style="fill:#263238"></path><path d="M322.73,111.43c-20.27,0-36.7-2.5-36.7-5.6V138.9c0,3.09,16.43,5.6,36.7,5.6s36.71-2.51,36.71-5.6V105.83C359.44,108.93,343,111.43,322.73,111.43Z" style="fill:#fff;opacity:0.9"></path><path d="M322.73,128.46c-18,0-37.2-2.13-37.2-6.09h1c0,2.13,13.77,5.09,36.2,5.09s36.21-3,36.21-5.09h1C359.94,126.33,340.77,128.46,322.73,128.46Z" style="fill:#fff"></path><path d="M253.47,291.28a2.43,2.43,0,1,1-2.43-2.43A2.42,2.42,0,0,1,253.47,291.28Z" style="fill:#263238"></path><path d="M251,291.78a.49.49,0,0,1-.35-.15l-16-16h-42a.5.5,0,0,1-.5-.5.5.5,0,0,1,.5-.5h42.17a.5.5,0,0,1,.35.14l16.12,16.12a.5.5,0,0,1,0,.7A.51.51,0,0,1,251,291.78Z" style="fill:#263238"></path><path d="M206.43,268.68H194.54a1.78,1.78,0,0,0-1.78,1.78h0a1.78,1.78,0,0,0,1.78,1.78h11.89a1.78,1.78,0,0,0,1.77-1.78h0A1.78,1.78,0,0,0,206.43,268.68Z" style="fill:#407BFF"></path><path d="M212.43,263H194.54a1.78,1.78,0,0,0-1.78,1.78h0a1.78,1.78,0,0,0,1.78,1.78h17.89a1.78,1.78,0,0,0,1.77-1.78h0A1.78,1.78,0,0,0,212.43,263Z" style="fill:#407BFF"></path><circle cx="276.85" cy="150.56" r="2.43" style="fill:#263238"></circle><path d="M276.85,151.06a.47.47,0,0,1-.35-.15l-16-16h-42a.5.5,0,0,1-.5-.5.5.5,0,0,1,.5-.5h42.17a.51.51,0,0,1,.35.15L277.2,150.2a.5.5,0,0,1,0,.71A.47.47,0,0,1,276.85,151.06Z" style="fill:#263238"></path><rect x="218.57" y="128.05" width="15.44" height="3.56" rx="1.78" style="fill:#407BFF"></rect><path d="M238.24,122.38H220.35a1.78,1.78,0,0,0-1.78,1.78h0a1.78,1.78,0,0,0,1.78,1.78h17.89a1.78,1.78,0,0,0,1.77-1.78h0A1.78,1.78,0,0,0,238.24,122.38Z" style="fill:#407BFF"></path><circle cx="380.09" cy="213.78" r="2.43" style="fill:#263238"></circle><path d="M380.09,214.28a.54.54,0,0,1-.36-.14.51.51,0,0,1,0-.71l16.12-16.11a.47.47,0,0,1,.35-.15h42.17a.5.5,0,0,1,0,1h-42l-16,16A.54.54,0,0,1,380.09,214.28Z" style="fill:#263238"></path><path d="M424.7,191.28h11.89a1.78,1.78,0,0,1,1.78,1.78h0a1.78,1.78,0,0,1-1.78,1.77H424.7a1.78,1.78,0,0,1-1.78-1.77h0A1.78,1.78,0,0,1,424.7,191.28Z" style="fill:#407BFF"></path><path d="M418.7,185.61h17.89a1.78,1.78,0,0,1,1.78,1.78h0a1.79,1.79,0,0,1-1.78,1.78H418.7a1.79,1.79,0,0,1-1.78-1.78h0A1.78,1.78,0,0,1,418.7,185.61Z" style="fill:#407BFF"></path><circle cx="359.44" cy="98.75" r="2.43" style="fill:#263238"></circle><path d="M359.44,99.25a.47.47,0,0,1-.35-.15.5.5,0,0,1,0-.71L375.2,82.28a.51.51,0,0,1,.35-.15h42.17a.5.5,0,0,1,.5.5.5.5,0,0,1-.5.5h-42l-16,16A.47.47,0,0,1,359.44,99.25Z" style="fill:#263238"></path><path d="M404.06,76.24h11.88A1.78,1.78,0,0,1,417.72,78h0a1.78,1.78,0,0,1-1.78,1.78H404.06A1.78,1.78,0,0,1,402.28,78h0A1.78,1.78,0,0,1,404.06,76.24Z" style="fill:#407BFF"></path><path d="M398.06,70.57h17.88a1.78,1.78,0,0,1,1.78,1.78h0a1.78,1.78,0,0,1-1.78,1.78H398.06a1.78,1.78,0,0,1-1.78-1.78h0A1.78,1.78,0,0,1,398.06,70.57Z" style="fill:#407BFF"></path></g><g id="freepik--Character--inject-5"><path d="M139.85,147.58c1.18,5.11,2.51,14.46-.94,17.86a27.33,27.33,0,0,0,12.66,10.39c6.68-4.28,3.2-10.39,3.2-10.39-5.74-1.36-5.74-5.58-4.89-9.54Z" style="fill:#b55b52"></path><path d="M138.74,172.85c-3.53-4.77-3.34-12.18-3.34-12.18s14-2,21.27,2.92c2.12,3.17,5.46,8.89,5.46,8.89s-1.12,2.92-5.45,3.93S138.74,172.85,138.74,172.85Z" style="fill:#407BFF"></path><path d="M134.74,179.39c-.17,2.19-.35,4.57-.41,6.85s-.14,4.6-.05,6.86a46.28,46.28,0,0,0,.6,6.5c.09.5.2,1,.31,1.46l.19.69.1.32.06.16,0,.08,0-.08c-.23-.4-.38-.41-.26-.31a3.87,3.87,0,0,0,.77.4,24,24,0,0,0,6.05,1.14c2.25.21,4.58.27,6.93.32s4.71,0,7.08-.07,4.77-.16,7.12-.25l.63,4.31a118.33,118.33,0,0,1-14.55,2.4,74,74,0,0,1-7.51.41c-1.29,0-2.59-.05-3.93-.17a22.45,22.45,0,0,1-4.27-.79,10.91,10.91,0,0,1-2.51-1.09,7.06,7.06,0,0,1-2.72-2.9l-.13-.27,0-.13-.12-.26-.21-.53-.38-1c-.23-.68-.43-1.35-.6-2a45.8,45.8,0,0,1-1.2-7.82c-.18-2.56-.23-5.08-.19-7.59s.2-5,.52-7.56Z" style="fill:#b55b52"></path><path d="M168,198.12l-6.54,6.37-.42,3.51c2.15,1.21,4.95.25,6.53-.49h0l6-2.07a2.7,2.7,0,0,0,1.81-2.66l-.08-2.25a2.93,2.93,0,0,0-3.17-2.79Z" style="fill:#b55b52"></path><path d="M132,166.35c-3.44,1-6.87,2.54-10,17.84,4.6,3.7,13.56,5.36,13.56,5.36l2.15-4.88c1.78-9.06-5.75-18.32-5.75-18.32" style="fill:#263238"></path><path d="M170.7,177.43c0,7.28-.78,20-3.61,42.12H132.16c.08-12.67.39-21.13-5.08-43.49a8.24,8.24,0,0,1,7.15-10.26c1.48-.15,3.06-.28,4.68-.36a111.82,111.82,0,0,1,15.86,0c2,.19,4.12.45,6.08.74A11.51,11.51,0,0,1,170.7,177.43Z" style="fill:#263238"></path><path d="M169.88,173.54v.09l.06.29.15.65a10.76,10.76,0,0,0,.41,1.38,21.31,21.31,0,0,0,1.24,2.78,23.68,23.68,0,0,0,3.8,5.15c.78.78,1.57,1.57,2.44,2.29l.64.54c.16.13.31.23.38.28s.08,0-.36-.07a2.89,2.89,0,0,0-1.36.14,3.21,3.21,0,0,0-1.64,1.24,2.43,2.43,0,0,0-.38.88c0,.14,0,.21,0,.21a1.41,1.41,0,0,0,0-.32,10.49,10.49,0,0,0-.22-1.41c-.23-1.06-.56-2.21-.93-3.35-1.48-4.63-3.39-9.35-5.28-14s-3.93-9.37-5.92-14l3.86-2c2.69,4.41,5.2,8.88,7.6,13.46A141.8,141.8,0,0,1,181,181.86c.49,1.26,1,2.54,1.35,3.95a18.43,18.43,0,0,1,.51,2.35,9.22,9.22,0,0,1,.1,1.6,7.1,7.1,0,0,1-.14,1.15,5.39,5.39,0,0,1-.74,1.77,4.69,4.69,0,0,1-2.39,1.81,4.94,4.94,0,0,1-2.3.18,7.17,7.17,0,0,1-2.15-.73,12.35,12.35,0,0,1-1.23-.75l-.89-.62a33,33,0,0,1-3.4-2.65,28.36,28.36,0,0,1-5.64-6.86,21.82,21.82,0,0,1-2-4.17,19.69,19.69,0,0,1-.67-2.29,11,11,0,0,1-.24-1.22c0-.2-.06-.44-.09-.66l0-.36,0-.49Z" style="fill:#b55b52"></path><path d="M157.58,174.05c0-3.82,3.27-7.87,3.27-7.87,5.85,1.21,11.31,3.54,15,15.56-2.29,6-10.4,10.61-10.4,10.61L160,182.4S157.62,177.86,157.58,174.05Z" style="fill:#263238"></path><path d="M165.74,152l-2.62-3.1-6.5-2-1.19,6.69,5.85,3.17s3.84,3.56,7,2.54A10.53,10.53,0,0,0,165.74,152Z" style="fill:#b55b52"></path><path d="M157.65,137c.14.68.62,1.17,1.07,1.09s.68-.7.54-1.38-.63-1.17-1.07-1.09S157.5,136.26,157.65,137Z" style="fill:#263238"></path><path d="M158,135.64l1.53-.77S159,136.31,158,135.64Z" style="fill:#263238"></path><path d="M158,132.31a.47.47,0,0,0,.22-.2.42.42,0,0,0-.21-.55,4,4,0,0,0-3.72,0,.41.41,0,0,0-.12.56.42.42,0,0,0,.56.14,3.22,3.22,0,0,1,2.95,0A.4.4,0,0,0,158,132.31Z" style="fill:#263238"></path><path d="M158,138.83a19.47,19.47,0,0,0,3.35,3.93,2.92,2.92,0,0,1-2.33.89Z" style="fill:#a02724"></path><path d="M157.47,140.36a2.53,2.53,0,0,1-1.78-.61,3,3,0,0,1-.73-2.45.27.27,0,0,1,.21-.22l7.08-1.25a.27.27,0,0,1,.3.2s.58,3.12-3.72,4.15A5.86,5.86,0,0,1,157.47,140.36Zm-2-2.8a2.37,2.37,0,0,0,.58,1.81,2.86,2.86,0,0,0,2.67.3c3.13-.75,3.38-2.6,3.35-3.28Z" style="fill:#263238"></path><path d="M134.14,138.22c2.3,8.3,3.09,11.85,8.21,15.41,7.71,5.35,17.32,1.07,17.53-7.65.19-7.86-3.59-20.11-12.46-22A11.24,11.24,0,0,0,134.14,138.22Z" style="fill:#b55b52"></path><path d="M132.81,128.47c-1.79-6.38,10.58-16.07,16.3-14.67s5.78,8.16,4.74,9.66c1.85.44,4.71,6.64-2,15.21.94,5.59,14,12,4.32,19.73s-37.84,5.18-33.62-2.81C128.36,144.65,123.15,129,132.81,128.47Z" style="fill:#263238"></path><path d="M151.47,138.61a.26.26,0,0,1-.26-.22.27.27,0,0,1,.21-.3l10.68-1.83a.26.26,0,0,1,0-.29.26.26,0,0,1,.35-.12l.6.3a.26.26,0,0,1-.07.49l-11.43,2Z" style="fill:#263238"></path><path d="M167.09,219.55s-.68,64.76-.33,91c.37,27.28,8.32,91,8.32,91H168.2s-18.82-52.94-16.9-91c-5.94-29.21-11.43-91-11.43-91Z" style="fill:#b55b52"></path><path d="M158,219.55s-14,67.82-19.85,93.18c-6.11,26.63-7.69,89.14-7.67,91.12l-5.8-2.33S114.35,332,123,308.34c-1-29.62,9.92-88.79,9.92-88.79Z" style="fill:#b55b52"></path><path d="M128.51,398.83c-5.11-.9-5,1.73-5.34,4.56a8.14,8.14,0,0,0,.84,5c1.8,3.17.26,7.85,6,7.85s6.25-1.33,4.71-4.16a32.2,32.2,0,0,1-3-9.09C131.33,401.35,130.78,399.23,128.51,398.83Z" style="fill:#263238"></path><path d="M123.5,404.87c0,3.44-.06,11.37-.06,11.37l.91,0s.78-8.45,1.27-10.73Z" style="fill:#263238"></path><path d="M148.86,140.4a6.56,6.56,0,0,0,3.82,3c2.13.6,3.14-1.27,2.49-3.25-.57-1.79-2.38-4.25-4.5-4S147.84,138.62,148.86,140.4Z" style="fill:#b55b52"></path><path d="M167.09,219.55l2,86s-3,2.31-14,1-13.74-5.81-21.7-7.16a48.38,48.38,0,0,0-13.4-.61c-2.53-50.25-1.08-68.66,12.23-79.17Z" style="fill:#407BFF"></path><path d="M133.84,237.34s10.6,9.91,21.19,13.4C148.12,250.74,135.66,244.67,133.84,237.34Z" style="opacity:0.2"></path><path d="M174.37,395.69c2,8.76,10.31,18.05,10.31,18.05l-12.11-3.11-5.1-7.58,1-2Z" style="fill:#b55b52"></path><path d="M166.82,400a6.3,6.3,0,0,0-.47,2.88c.21,3.63,1,13.24,1,13.24h.83a84.16,84.16,0,0,1,.08-8.86c.31-2.39,1.49,1.83,3.15,4.22s4.82,4.55,10.22,4.72c6.32.2,8.87-.07,7-1.65s-6.13-2.61-6.13-2.61a17.08,17.08,0,0,1-7.94-7.15,15,15,0,0,0-6.61-5.88A1.62,1.62,0,0,0,166.82,400Z" style="fill:#263238"></path></g></svg>